<svg id="Layer_1" data-name="Layer 1" xmlns="http://www.w3.org/2000/svg" viewBox="0 0 38.97 19.48"><defs><style>.cls-1{fill:#fff;}</style></defs><title>burgermenu</title><path class="cls-1" d="M665.22,377.44h36.53a1.22,1.22,0,0,0,0-2.44H665.22a1.22,1.22,0,0,0,0,2.44Z" transform="translate(-664 -375)"/><path class="cls-1" d="M701.75,383.52H665.22a1.22,1.22,0,1,0,0,2.44h36.53a1.22,1.22,0,1,0,0-2.44Z" transform="translate(-664 -375)"/><path class="cls-1" d="M701.75,392H677.4a1.22,1.22,0,0,0,0,2.44h24.36a1.22,1.22,0,0,0,0-2.44Z" transform="translate(-664 -375)"/></svg>