<svg id="Layer_1" data-name="Layer 1" xmlns="http://www.w3.org/2000/svg" viewBox="0 0 180.18 60.81"><defs><style>.cls-1{fill:#fff;}</style></defs><title>logo</title><path class="cls-1" d="M613.79,355a9.08,9.08,0,0,0-8.79,5.64q-2.67,5.64-2.67,17,0,11.13,2.88,16.84t8.79,5.71q6.68,0,10.27-3.93,4.29-4.62,4.29-14.87h.56q0,10.17-3.89,14.8T614,400.78a20.62,20.62,0,0,1-14.1-5q-6.87-6-6.87-17.32,0-11,7-18,6-6,12.79-6" transform="translate(-593 -354)"/><path class="cls-1" d="M628.07,354v20.34l-.56-.35q0-9-5-14.47-4.14-4.53-8.72-4.54" transform="translate(-593 -354)"/><path class="cls-1" d="M618.51,355.54a16.11,16.11,0,0,1,5.76,5l3.45-6.59" transform="translate(-593 -354)"/><path class="cls-1" d="M649.11,392.47v-9.38a3.61,3.61,0,0,1-2.49,1.38l-3.19.46a5.31,5.31,0,0,0-3.23,2.25,10.71,10.71,0,0,0-1.4,5.92q0,4.09.8,5.53a2.73,2.73,0,0,0,2.57,1.45,6.54,6.54,0,0,0,4.8-2.22A7.51,7.51,0,0,0,649.11,392.47Zm.21-12.69V375.7q0-2.82-.9-3.81c-.59-.66-1.88-1-3.85-1a9.16,9.16,0,0,0-4.23.93,4.56,4.56,0,0,0-2.38,2.51,2.75,2.75,0,0,1,.7-.07,2.65,2.65,0,0,1,2.17,1.05,3.73,3.73,0,0,1,.84,2.39,3.26,3.26,0,0,1-1.06,2.52,3.51,3.51,0,0,1-2.48,1,2.78,2.78,0,0,1-1.63-.49,3.92,3.92,0,0,1-2-3.36,7.22,7.22,0,0,1,.42-2.25c.66-1.82,2.29-3.15,4.91-4a18.48,18.48,0,0,1,5.68-.91q5.19,0,7.86,2a5.28,5.28,0,0,1,2.38,4.41V392a35.73,35.73,0,0,0,.21,5.18c.33,1.59,1.17,2.38,2.53,2.38a2.43,2.43,0,0,0,2.45-1.88,18.07,18.07,0,0,0,.63-5.44q0-1,0-1.95c0-.66,0-1.33,0-2v-.62h.84v3.08c0,1,0,1.92.07,2.81q0,4.06-1,5.47c-.85,1.17-2.56,1.75-5.15,1.75a7.9,7.9,0,0,1-4.51-1,6.33,6.33,0,0,1-2.33-4.24,8.12,8.12,0,0,1-4.42,4.59,13.14,13.14,0,0,1-4.7.69,9.29,9.29,0,0,1-5.12-1.4,6.35,6.35,0,0,1-3-5.76,8.18,8.18,0,0,1,2.93-6.39,12.09,12.09,0,0,1,7.12-2.88,16.84,16.84,0,0,0,5.66-1.13C648.83,382.71,649.32,381.56,649.32,379.78Z" transform="translate(-593 -354)"/><path class="cls-1" d="M670.43,374.85a3.32,3.32,0,0,0-.28-1.76,2,2,0,0,0-.91-.85,27.66,27.66,0,0,0-5.75-.35v-.64L677,370.2v8.91a11.59,11.59,0,0,1,2-5.4q2.31-3.51,5.82-3.51a5.78,5.78,0,0,1,2.87.88,4.43,4.43,0,0,1,2.07,2.21,6.61,6.61,0,0,1,.53,2.38,3.86,3.86,0,0,1-2.34,3.86,3.64,3.64,0,0,1-3.89-.7,4,4,0,0,1-1-2.95,4.13,4.13,0,0,1,1-2.52,2.11,2.11,0,0,1,2.23-1c-.28-1-1.12-1.48-2.51-1.48s-2.7,1-4.05,3a16.78,16.78,0,0,0-2.66,9.8v13.11a5,5,0,0,0,.21,1.83,1.54,1.54,0,0,0,.63.43,24.18,24.18,0,0,0,6.11.49v.63H663.49v-.63c1.35,0,2.58,0,3.68-.14a11.87,11.87,0,0,0,2.84-.57c.28-.23.42-.92.42-2.05Z" transform="translate(-593 -354)"/><path class="cls-1" d="M703.53,385.7q0,7.05,1.61,10.71t4.39,3.67a4.64,4.64,0,0,0,4.64-3.14q1.29-3.13,1.29-11.38a47.89,47.89,0,0,0-.77-10.43c-.74-2.86-2.28-4.3-4.6-4.3q-2.37,0-4.25,3.6Q703.53,378.72,703.53,385.7Zm-.42-5.5a16.05,16.05,0,0,1,2-6.29c1.45-2.47,3.36-3.71,5.75-3.71a10.53,10.53,0,0,1,8.35,3.86q3.57,4.2,3.57,11.57a16.49,16.49,0,0,1-3.29,9.68q-3.87,5.47-9.75,5.47-3.09,0-4.91-3.28a15.48,15.48,0,0,1-1.69-5.31v19.25a4.94,4.94,0,0,0,.21,1.82,1.62,1.62,0,0,0,.64.43,24,24,0,0,0,6.1.49v.63H689.58v-.63c1.35,0,2.58-.05,3.68-.14a11.87,11.87,0,0,0,2.84-.57q.42-.35.42-2V375.05a3.43,3.43,0,0,0-.42-2,1.87,1.87,0,0,0-.84-.7,26.59,26.59,0,0,0-5.61-.35v-.64l13.46-1.19Z" transform="translate(-593 -354)"/><path class="cls-1" d="M744.77,384.86a34.06,34.06,0,0,0-1.21-10.38c-.81-2.38-2.11-3.58-3.92-3.58a5.47,5.47,0,0,0-5.37,3.4q-1.56,3.4-1.56,10.56Zm-12.06.84q0,7.55,1.79,10.93a5.8,5.8,0,0,0,5.44,3.38,10,10,0,0,0,6.8-2.61,11,11,0,0,0,3.58-8.61h.56a11.69,11.69,0,0,1-3.37,8.62,12.11,12.11,0,0,1-9,3.37A12.27,12.27,0,0,1,730,397.2a14.27,14.27,0,0,1-4.56-11,16.47,16.47,0,0,1,4.49-12,12.07,12.07,0,0,1,8.83-4,11,11,0,0,1,7.58,2.67q4.41,3.93,4.42,12.83Z" transform="translate(-593 -354)"/><path class="cls-1" d="M764.55,356.18V371h8.07v2h-8.07v19a25.62,25.62,0,0,0,.28,4.9c.46,1.77,1.49,2.66,3.1,2.66q2.82,0,3.72-3.07a33.43,33.43,0,0,0,.62-8v-3.35h.84v3.23c0,1.07,0,2.1.07,3.08,0,3.28-.38,5.52-1.12,6.74q-1.54,2.52-6,2.52-4.22,0-6.18-2a8.05,8.05,0,0,1-2-5.82V373h-5.61v-.63a13.11,13.11,0,0,0,8.67-6.7,19.25,19.25,0,0,0,2.34-9.5" transform="translate(-593 -354)"/></svg>